<svg xmlns="http://www.w3.org/2000/svg" id="my-svg" width="100%" aria-roledescription="sankey" style="font-family:&quot;trebuchet ms&quot;,verdana,arial,sans-serif;font-size:16px;fill:#333;max-width:600px;background-color:#fff" viewBox="0 -5.772 600 409.017"><style>#my-svg svg{font-family:&quot;trebuchet ms&quot;,verdana,arial,sans-serif;font-size:16px}#my-svg :root{--mermaid-font-family:&quot;trebuchet ms&quot;,verdana,arial,sans-serif}</style><g class="nodes"><path id="node-1" fill="#4e79a7" d="M0 0h10v4.655H0z" class="node"/><path id="node-2" fill="#f28e2c" d="M0 0h10v55.862H0z" class="node" transform="translate(590 23.255)"/><path id="node-3" fill="#e15759" d="M0 0h10v4.655H0z" class="node" transform="translate(0 14.655)"/><path id="node-4" fill="#76b7b2" d="M0 0h10v13.966H0z" class="node" transform="translate(0 29.31)"/><path id="node-5" fill="#59a14f" d="M0 0h10v32.586H0z" class="node" transform="translate(0 53.276)"/><path id="node-6" fill="#edc949" d="M0 0h10v18.621H0z" class="node" transform="translate(0 95.862)"/><path id="node-7" fill="#af7aa1" d="M0 0h10v18.621H0z" class="node" transform="translate(590 95.72)"/><path id="node-8" fill="#ff9da7" d="M0 0h10v23.276H0z" class="node" transform="translate(0 124.483)"/><path id="node-9" fill="#9c755f" d="M0 0h10v23.276H0z" class="node" transform="translate(590 124.341)"/><path id="node-10" fill="#bab0ab" d="M0 0h10v13.966H0z" class="node" transform="translate(0 157.759)"/><path id="node-11" fill="#4e79a7" d="M0 0h10v37.241H0z" class="node" transform="translate(590 167.586)"/><path id="node-12" fill="#f28e2c" d="M0 0h10v9.31H0z" class="node" transform="translate(0 181.724)"/><path id="node-13" fill="#e15759" d="M0 0h10v13.966H0z" class="node" transform="translate(0 201.034)"/><path id="node-14" fill="#76b7b2" d="M0 0h10v18.621H0z" class="node" transform="translate(0 225)"/><path id="node-15" fill="#59a14f" d="M0 0h10v60.517H0z" class="node" transform="translate(590 231.726)"/><path id="node-16" fill="#edc949" d="M0 0h10v41.897H0z" class="node" transform="translate(0 253.62)"/><path id="node-17" fill="#af7aa1" d="M0 0h10v37.241H0z" class="node" transform="translate(0 305.517)"/><path id="node-18" fill="#ff9da7" d="M0 0h10v37.241H0z" class="node" transform="translate(590 305.309)"/><path id="node-19" fill="#9c755f" d="M0 0h10v27.931H0z" class="node" transform="translate(0 352.759)"/><path id="node-20" fill="#bab0ab" d="M0 0h10v37.241H0z" class="node" transform="translate(590 355.038)"/><path id="node-21" fill="#4e79a7" d="M0 0h10v9.31H0z" class="node" transform="translate(0 390.69)"/></g><g class="node-labels" font-family="sans-serif" font-size="14"><text x="16" y="2.328" dy=".35em">Landing Page</text><text x="584" y="51.186" dy=".35em" text-anchor="end">DITA Open Toolkit 4.3</text><text x="16" y="16.983" dy=".35em">Release Notes</text><text x="16" y="36.293" dy=".35em">Authoring formats</text><text x="16" y="69.569" dy=".35em">Output formats</text><text x="16" y="105.172" dy=".35em">Installing DITA-OT</text><text x="584" y="105.031" dy=".35em" text-anchor="end">Installing</text><text x="16" y="136.121" dy=".35em">Building output</text><text x="584" y="135.979" dy=".35em" text-anchor="end">Publishing</text><text x="16" y="164.741" dy=".35em">Parameters</text><text x="584" y="186.207" dy=".35em" text-anchor="end">Configuring</text><text x="16" y="186.379" dy=".35em">Customizing HTML</text><text x="16" y="208.017" dy=".35em">Customizing PDF</text><text x="16" y="234.31" dy=".35em">Adding plug-ins</text><text x="584" y="261.984" dy=".35em" text-anchor="end">Extending</text><text x="16" y="274.569" dy=".35em">Creating plug-ins</text><text x="16" y="324.138" dy=".35em">Error messages and troubleshooting</text><text x="584" y="323.929" dy=".35em" text-anchor="end">Troubleshooting</text><text x="16" y="366.724" dy=".35em">Reference topics</text><text x="584" y="373.659" dy=".35em" text-anchor="end">Reference</text><text x="16" y="395.345" dy=".35em">Resources</text></g><g fill="none" stroke-opacity=".5" class="links"><g class="link" style="mix-blend-mode:multiply"><linearGradient id="linearGradient-22" x1="10" x2="590" gradientUnits="userSpaceOnUse"><stop offset="0%" stop-color="#4e79a7"/><stop offset="100%" stop-color="#f28e2c"/></linearGradient><path stroke="url(#linearGradient-22)" stroke-width="4.655" d="M10 2.328c290 0 290 23.255 580 23.255"/></g><g class="link" style="mix-blend-mode:multiply"><linearGradient id="linearGradient-23" x1="10" x2="590" gradientUnits="userSpaceOnUse"><stop offset="0%" stop-color="#e15759"/><stop offset="100%" stop-color="#f28e2c"/></linearGradient><path stroke="url(#linearGradient-23)" stroke-width="4.655" d="M10 16.983c290 0 290 13.255 580 13.255"/></g><g class="link" style="mix-blend-mode:multiply"><linearGradient id="linearGradient-24" x1="10" x2="590" gradientUnits="userSpaceOnUse"><stop offset="0%" stop-color="#76b7b2"/><stop offset="100%" stop-color="#f28e2c"/></linearGradient><path stroke="url(#linearGradient-24)" stroke-width="13.966" d="M10 36.293c290 0 290 3.255 580 3.255"/></g><g class="link" style="mix-blend-mode:multiply"><linearGradient id="linearGradient-25" x1="10" x2="590" gradientUnits="userSpaceOnUse"><stop offset="0%" stop-color="#59a14f"/><stop offset="100%" stop-color="#f28e2c"/></linearGradient><path stroke="url(#linearGradient-25)" stroke-width="32.586" d="M10 69.569c290 0 290-6.745 580-6.745"/></g><g class="link" style="mix-blend-mode:multiply"><linearGradient id="linearGradient-26" x1="10" x2="590" gradientUnits="userSpaceOnUse"><stop offset="0%" stop-color="#edc949"/><stop offset="100%" stop-color="#af7aa1"/></linearGradient><path stroke="url(#linearGradient-26)" stroke-width="18.621" d="M10 105.172c290 0 290-.141 580-.141"/></g><g class="link" style="mix-blend-mode:multiply"><linearGradient id="linearGradient-27" x1="10" x2="590" gradientUnits="userSpaceOnUse"><stop offset="0%" stop-color="#ff9da7"/><stop offset="100%" stop-color="#9c755f"/></linearGradient><path stroke="url(#linearGradient-27)" stroke-width="23.276" d="M10 136.12c290 0 290-.141 580-.141"/></g><g class="link" style="mix-blend-mode:multiply"><linearGradient id="linearGradient-28" x1="10" x2="590" gradientUnits="userSpaceOnUse"><stop offset="0%" stop-color="#bab0ab"/><stop offset="100%" stop-color="#4e79a7"/></linearGradient><path stroke="url(#linearGradient-28)" stroke-width="13.966" d="M10 164.741c290 0 290 9.828 580 9.828"/></g><g class="link" style="mix-blend-mode:multiply"><linearGradient id="linearGradient-29" x1="10" x2="590" gradientUnits="userSpaceOnUse"><stop offset="0%" stop-color="#f28e2c"/><stop offset="100%" stop-color="#4e79a7"/></linearGradient><path stroke="url(#linearGradient-29)" stroke-width="9.31" d="M10 186.38c290 0 290-.173 580-.173"/></g><g class="link" style="mix-blend-mode:multiply"><linearGradient id="linearGradient-30" x1="10" x2="590" gradientUnits="userSpaceOnUse"><stop offset="0%" stop-color="#e15759"/><stop offset="100%" stop-color="#4e79a7"/></linearGradient><path stroke="url(#linearGradient-30)" stroke-width="13.966" d="M10 208.017c290 0 290-10.173 580-10.173"/></g><g class="link" style="mix-blend-mode:multiply"><linearGradient id="linearGradient-31" x1="10" x2="590" gradientUnits="userSpaceOnUse"><stop offset="0%" stop-color="#76b7b2"/><stop offset="100%" stop-color="#59a14f"/></linearGradient><path stroke="url(#linearGradient-31)" stroke-width="18.621" d="M10 234.31c290 0 290 6.726 580 6.726"/></g><g class="link" style="mix-blend-mode:multiply"><linearGradient id="linearGradient-32" x1="10" x2="590" gradientUnits="userSpaceOnUse"><stop offset="0%" stop-color="#edc949"/><stop offset="100%" stop-color="#59a14f"/></linearGradient><path stroke="url(#linearGradient-32)" stroke-width="41.897" d="M10 274.569c290 0 290-3.274 580-3.274"/></g><g class="link" style="mix-blend-mode:multiply"><linearGradient id="linearGradient-33" x1="10" x2="590" gradientUnits="userSpaceOnUse"><stop offset="0%" stop-color="#af7aa1"/><stop offset="100%" stop-color="#ff9da7"/></linearGradient><path stroke="url(#linearGradient-33)" stroke-width="37.241" d="M10 324.138c290 0 290-.209 580-.209"/></g><g class="link" style="mix-blend-mode:multiply"><linearGradient id="linearGradient-34" x1="10" x2="590" gradientUnits="userSpaceOnUse"><stop offset="0%" stop-color="#9c755f"/><stop offset="100%" stop-color="#bab0ab"/></linearGradient><path stroke="url(#linearGradient-34)" stroke-width="27.931" d="M10 366.724c290 0 290 2.28 580 2.28"/></g><g class="link" style="mix-blend-mode:multiply"><linearGradient id="linearGradient-35" x1="10" x2="590" gradientUnits="userSpaceOnUse"><stop offset="0%" stop-color="#4e79a7"/><stop offset="100%" stop-color="#bab0ab"/></linearGradient><path stroke="url(#linearGradient-35)" stroke-width="9.31" d="M10 395.345c290 0 290-7.72 580-7.72"/></g></g></svg>
