<svg aria-roledescription="sankey" role="graphics-document document" viewBox="0 -5.772413730621338 600 409.0172119140625" style="max-width: 600px; background-color: white;" xmlns:xlink="http://www.w3.org/1999/xlink" xmlns="http://www.w3.org/2000/svg" width="100%" id="my-svg"><style>#my-svg{font-family:"trebuchet ms",verdana,arial,sans-serif;font-size:16px;fill:#333;}#my-svg .error-icon{fill:#552222;}#my-svg .error-text{fill:#552222;stroke:#552222;}#my-svg .edge-thickness-normal{stroke-width:1px;}#my-svg .edge-thickness-thick{stroke-width:3.5px;}#my-svg .edge-pattern-solid{stroke-dasharray:0;}#my-svg .edge-thickness-invisible{stroke-width:0;fill:none;}#my-svg .edge-pattern-dashed{stroke-dasharray:3;}#my-svg .edge-pattern-dotted{stroke-dasharray:2;}#my-svg .marker{fill:#333333;stroke:#333333;}#my-svg .marker.cross{stroke:#333333;}#my-svg svg{font-family:"trebuchet ms",verdana,arial,sans-serif;font-size:16px;}#my-svg p{margin:0;}#my-svg :root{--mermaid-font-family:"trebuchet ms",verdana,arial,sans-serif;}</style><g/><g class="nodes"><g y="0" x="0" transform="translate(0,0)" id="node-1" class="node"><rect fill="#4e79a7" width="10" height="4.655172413793103"/></g><g y="23.25508849605218" x="590" transform="translate(590,23.25508849605218)" id="node-2" class="node"><rect fill="#f28e2c" width="10" height="55.86206896551724"/></g><g y="14.655172413793103" x="0" transform="translate(0,14.655172413793103)" id="node-3" class="node"><rect fill="#e15759" width="10" height="4.655172413793103"/></g><g y="29.310344827586206" x="0" transform="translate(0,29.310344827586206)" id="node-4" class="node"><rect fill="#76b7b2" width="10" height="13.96551724137931"/></g><g y="53.275862068965516" x="0" transform="translate(0,53.275862068965516)" id="node-5" class="node"><rect fill="#59a14f" width="10" height="32.58620689655172"/></g><g y="95.86206896551724" x="0" transform="translate(0,95.86206896551724)" id="node-6" class="node"><rect fill="#edc949" width="10" height="18.620689655172413"/></g><g y="95.72037446378498" x="590" transform="translate(590,95.72037446378498)" id="node-7" class="node"><rect fill="#af7aa1" width="10" height="18.620689655172413"/></g><g y="124.48275862068965" x="0" transform="translate(0,124.48275862068965)" id="node-8" class="node"><rect fill="#ff9da7" width="10" height="23.275862068965523"/></g><g y="124.34106411895739" x="590" transform="translate(590,124.34106411895739)" id="node-9" class="node"><rect fill="#9c755f" width="10" height="23.27586206896551"/></g><g y="157.75862068965517" x="0" transform="translate(0,157.75862068965517)" id="node-10" class="node"><rect fill="#bab0ab" width="10" height="13.965517241379303"/></g><g y="167.5858725747254" x="590" transform="translate(590,167.5858725747254)" id="node-11" class="node"><rect fill="#4e79a7" width="10" height="37.241379310344826"/></g><g y="181.72413793103448" x="0" transform="translate(0,181.72413793103448)" id="node-12" class="node"><rect fill="#f28e2c" width="10" height="9.31034482758622"/></g><g y="201.0344827586207" x="0" transform="translate(0,201.0344827586207)" id="node-13" class="node"><rect fill="#e15759" width="10" height="13.965517241379303"/></g><g y="225" x="0" transform="translate(0,225)" id="node-14" class="node"><rect fill="#76b7b2" width="10" height="18.62068965517244"/></g><g y="231.7256867355283" x="590" transform="translate(590,231.7256867355283)" id="node-15" class="node"><rect fill="#59a14f" width="10" height="60.51724137931035"/></g><g y="253.62068965517244" x="0" transform="translate(0,253.62068965517244)" id="node-16" class="node"><rect fill="#edc949" width="10" height="41.89655172413791"/></g><g y="305.51724137931035" x="0" transform="translate(0,305.51724137931035)" id="node-17" class="node"><rect fill="#af7aa1" width="10" height="37.24137931034477"/></g><g y="305.308701606346" x="590" transform="translate(590,305.308701606346)" id="node-18" class="node"><rect fill="#ff9da7" width="10" height="37.241379310344826"/></g><g y="352.7586206896551" x="0" transform="translate(0,352.7586206896551)" id="node-19" class="node"><rect fill="#9c755f" width="10" height="27.931034482758605"/></g><g y="355.0383176662763" x="590" transform="translate(590,355.0383176662763)" id="node-20" class="node"><rect fill="#bab0ab" width="10" height="37.241379310344826"/></g><g y="390.6896551724137" x="0" transform="translate(0,390.6896551724137)" id="node-21" class="node"><rect fill="#4e79a7" width="10" height="9.31034482758622"/></g></g><g font-size="14" font-family="sans-serif" class="node-labels"><text text-anchor="start" dy="0.35em" y="2.3275862068965516" x="16">Landing Page</text><text text-anchor="end" dy="0.35em" y="51.1861229788108" x="584">DITA Open Toolkit 4.3</text><text text-anchor="start" dy="0.35em" y="16.982758620689655" x="16">Release Notes</text><text text-anchor="start" dy="0.35em" y="36.29310344827586" x="16">Authoring formats</text><text text-anchor="start" dy="0.35em" y="69.56896551724138" x="16">Output formats</text><text text-anchor="start" dy="0.35em" y="105.17241379310344" x="16">Installing DITA-OT</text><text text-anchor="end" dy="0.35em" y="105.03071929137118" x="584">Installing</text><text text-anchor="start" dy="0.35em" y="136.1206896551724" x="16">Building output</text><text text-anchor="end" dy="0.35em" y="135.97899515344014" x="584">Publishing</text><text text-anchor="start" dy="0.35em" y="164.74137931034483" x="16">Parameters</text><text text-anchor="end" dy="0.35em" y="186.20656222989783" x="584">Configuring</text><text text-anchor="start" dy="0.35em" y="186.3793103448276" x="16">Customizing HTML</text><text text-anchor="start" dy="0.35em" y="208.01724137931035" x="16">Customizing PDF</text><text text-anchor="start" dy="0.35em" y="234.31034482758622" x="16">Adding plug-ins</text><text text-anchor="end" dy="0.35em" y="261.9843074251835" x="584">Extending</text><text text-anchor="start" dy="0.35em" y="274.5689655172414" x="16">Creating plug-ins</text><text text-anchor="start" dy="0.35em" y="324.13793103448273" x="16">Error messages and troubleshooting</text><text text-anchor="end" dy="0.35em" y="323.9293912615184" x="584">Troubleshooting</text><text text-anchor="start" dy="0.35em" y="366.7241379310344" x="16">Reference topics</text><text text-anchor="end" dy="0.35em" y="373.6590073214487" x="584">Reference</text><text text-anchor="start" dy="0.35em" y="395.34482758620686" x="16">Resources</text></g><g stroke-opacity="0.5" fill="none" class="links"><g style="mix-blend-mode: multiply;" class="link"><linearGradient x2="590" x1="10" gradientUnits="userSpaceOnUse" id="linearGradient-22"><stop stop-color="#4e79a7" offset="0%"/><stop stop-color="#f28e2c" offset="100%"/></linearGradient><path stroke-width="4.655172413793103" stroke="url(#linearGradient-22)" d="M10,2.3275862068965516C300,2.3275862068965516,300,25.582674702948733,590,25.582674702948733"/></g><g style="mix-blend-mode: multiply;" class="link"><linearGradient x2="590" x1="10" gradientUnits="userSpaceOnUse" id="linearGradient-23"><stop stop-color="#e15759" offset="0%"/><stop stop-color="#f28e2c" offset="100%"/></linearGradient><path stroke-width="4.655172413793103" stroke="url(#linearGradient-23)" d="M10,16.982758620689655C300,16.982758620689655,300,30.237847116741836,590,30.237847116741836"/></g><g style="mix-blend-mode: multiply;" class="link"><linearGradient x2="590" x1="10" gradientUnits="userSpaceOnUse" id="linearGradient-24"><stop stop-color="#76b7b2" offset="0%"/><stop stop-color="#f28e2c" offset="100%"/></linearGradient><path stroke-width="13.96551724137931" stroke="url(#linearGradient-24)" d="M10,36.29310344827586C300,36.29310344827586,300,39.54819194432804,590,39.54819194432804"/></g><g style="mix-blend-mode: multiply;" class="link"><linearGradient x2="590" x1="10" gradientUnits="userSpaceOnUse" id="linearGradient-25"><stop stop-color="#59a14f" offset="0%"/><stop stop-color="#f28e2c" offset="100%"/></linearGradient><path stroke-width="32.58620689655172" stroke="url(#linearGradient-25)" d="M10,69.56896551724138C300,69.56896551724138,300,62.82405401329356,590,62.82405401329356"/></g><g style="mix-blend-mode: multiply;" class="link"><linearGradient x2="590" x1="10" gradientUnits="userSpaceOnUse" id="linearGradient-26"><stop stop-color="#edc949" offset="0%"/><stop stop-color="#af7aa1" offset="100%"/></linearGradient><path stroke-width="18.620689655172413" stroke="url(#linearGradient-26)" d="M10,105.17241379310344C300,105.17241379310344,300,105.03071929137118,590,105.03071929137118"/></g><g style="mix-blend-mode: multiply;" class="link"><linearGradient x2="590" x1="10" gradientUnits="userSpaceOnUse" id="linearGradient-27"><stop stop-color="#ff9da7" offset="0%"/><stop stop-color="#9c755f" offset="100%"/></linearGradient><path stroke-width="23.275862068965516" stroke="url(#linearGradient-27)" d="M10,136.1206896551724C300,136.1206896551724,300,135.97899515344014,590,135.97899515344014"/></g><g style="mix-blend-mode: multiply;" class="link"><linearGradient x2="590" x1="10" gradientUnits="userSpaceOnUse" id="linearGradient-28"><stop stop-color="#bab0ab" offset="0%"/><stop stop-color="#4e79a7" offset="100%"/></linearGradient><path stroke-width="13.96551724137931" stroke="url(#linearGradient-28)" d="M10,164.74137931034483C300,164.74137931034483,300,174.56863119541507,590,174.56863119541507"/></g><g style="mix-blend-mode: multiply;" class="link"><linearGradient x2="590" x1="10" gradientUnits="userSpaceOnUse" id="linearGradient-29"><stop stop-color="#f28e2c" offset="0%"/><stop stop-color="#4e79a7" offset="100%"/></linearGradient><path stroke-width="9.310344827586206" stroke="url(#linearGradient-29)" d="M10,186.3793103448276C300,186.3793103448276,300,186.20656222989783,590,186.20656222989783"/></g><g style="mix-blend-mode: multiply;" class="link"><linearGradient x2="590" x1="10" gradientUnits="userSpaceOnUse" id="linearGradient-30"><stop stop-color="#e15759" offset="0%"/><stop stop-color="#4e79a7" offset="100%"/></linearGradient><path stroke-width="13.96551724137931" stroke="url(#linearGradient-30)" d="M10,208.01724137931035C300,208.01724137931035,300,197.84449326438056,590,197.84449326438056"/></g><g style="mix-blend-mode: multiply;" class="link"><linearGradient x2="590" x1="10" gradientUnits="userSpaceOnUse" id="linearGradient-31"><stop stop-color="#76b7b2" offset="0%"/><stop stop-color="#59a14f" offset="100%"/></linearGradient><path stroke-width="18.620689655172413" stroke="url(#linearGradient-31)" d="M10,234.31034482758622C300,234.31034482758622,300,241.03603156311453,590,241.03603156311453"/></g><g style="mix-blend-mode: multiply;" class="link"><linearGradient x2="590" x1="10" gradientUnits="userSpaceOnUse" id="linearGradient-32"><stop stop-color="#edc949" offset="0%"/><stop stop-color="#59a14f" offset="100%"/></linearGradient><path stroke-width="41.89655172413793" stroke="url(#linearGradient-32)" d="M10,274.5689655172414C300,274.5689655172414,300,271.2946522527697,590,271.2946522527697"/></g><g style="mix-blend-mode: multiply;" class="link"><linearGradient x2="590" x1="10" gradientUnits="userSpaceOnUse" id="linearGradient-33"><stop stop-color="#af7aa1" offset="0%"/><stop stop-color="#ff9da7" offset="100%"/></linearGradient><path stroke-width="37.241379310344826" stroke="url(#linearGradient-33)" d="M10,324.1379310344828C300,324.1379310344828,300,323.9293912615184,590,323.9293912615184"/></g><g style="mix-blend-mode: multiply;" class="link"><linearGradient x2="590" x1="10" gradientUnits="userSpaceOnUse" id="linearGradient-34"><stop stop-color="#9c755f" offset="0%"/><stop stop-color="#bab0ab" offset="100%"/></linearGradient><path stroke-width="27.93103448275862" stroke="url(#linearGradient-34)" d="M10,366.7241379310344C300,366.7241379310344,300,369.00383490765563,590,369.00383490765563"/></g><g style="mix-blend-mode: multiply;" class="link"><linearGradient x2="590" x1="10" gradientUnits="userSpaceOnUse" id="linearGradient-35"><stop stop-color="#4e79a7" offset="0%"/><stop stop-color="#bab0ab" offset="100%"/></linearGradient><path stroke-width="9.310344827586206" stroke="url(#linearGradient-35)" d="M10,395.3448275862068C300,395.3448275862068,300,387.624524562828,590,387.624524562828"/></g></g></svg>