<svg xmlns="http://www.w3.org/2000/svg" xml:space="preserve" width="709" height="481" color-interpolation-filters="sRGB" style="fill:none;fill-rule:evenodd;font-size:12px;overflow:visible;stroke-linecap:square;stroke-miterlimit:3" viewBox="0 0 531.75 360.75"><style>.st1{fill:#e5b9b5;stroke:#000;stroke-linecap:round;stroke-linejoin:round;stroke-width:.75}.st2{fill:#000;font-family:Arial;font-size:1.00001em}.st3{fill:#f2dcda;stroke:#000;stroke-linecap:round;stroke-linejoin:round;stroke-width:.75}.st4{fill:#000;font-family:Consolas;font-size:1.00001em}.st5{font-size:1em}.st6,.st7,.st8{fill:#000;stroke:none;stroke-linecap:round;stroke-linejoin:round;stroke-width:.75}.st7,.st8{fill:#d5dfeb;stroke:#000}.st8{fill:#eaeff5}.st9{fill:#000;font-family:Consolas;font-size:.916672em}.st10,.st11{fill:#ddd6e5;stroke:#000;stroke-linecap:round;stroke-linejoin:round;stroke-width:.75}.st11{fill:#eeeaf2}</style><g id="shape1-1" transform="translate(.375 -288.375)"><path d="M0 342.75h135v18H0z" class="st1"/><text x="41.82" y="355.35" class="st2">Context 1</text></g><g id="shape2-4" transform="translate(.375 -207.375)"><path d="M0 324.75h135v36H0z" class="st3"/><text x="27.91" y="339.15" class="st4">map2.ditamap<tspan x="11.42" class="st5" dy="1.2em">product</tspan>-A.ditaval</text></g><g id="shape4-8" transform="translate(.375 -243.375)"><path d="M0 342.75h135v18H0z" class="st1"/><text x="35.82" y="355.35" class="st2">Context 2-A</text></g><g id="shape7-11" transform="translate(.375 -270.375)"><path d="M0 342.75h135v18H0z" class="st3"/><text x="27.91" y="355.35" class="st4">map1.ditamap</text></g><g id="shape9-14" transform="translate(.375 -144.375)"><path d="M0 324.75h135v36H0z" class="st3"/><text x="27.91" y="339.15" class="st4">map2.ditamap<tspan x="11.42" class="st5" dy="1.2em">product</tspan>-B.ditaval</text></g><g id="shape10-18" transform="translate(.375 -180.375)"><path d="M0 342.75h135v18H0z" class="st1"/><text x="35.82" y="355.35" class="st2">Context 2-B</text></g><g id="shape11-21" transform="translate(.375 -117.375)"><path d="M0 342.75h135v18H0z" class="st1"/><text x="41.82" y="355.35" class="st2">Context 3</text></g><g id="shape12-24" transform="translate(.375 -99.375)"><path d="M0 342.75h135v18H0z" class="st3"/><text x="27.91" y="355.35" class="st4">map3.ditamap</text></g><g id="shape13-27" transform="translate(.375 -18.375)"><path d="M0 342.75h135v18H0z" class="st1"/><text x="35.14" y="355.35" class="st2">Context 100</text></g><g id="shape14-30" transform="translate(.375 -.375)"><path d="M0 342.75h135v18H0z" class="st3"/><text x="21.32" y="355.35" class="st4">map100.ditamap</text></g><g id="shape15-33" transform="translate(60.892 -76.875)"><ellipse cx="4.655" cy="356.25" class="st6" rx="4.655" ry="4.5"/></g><g id="shape16-35" transform="translate(60.892 -63.375)"><ellipse cx="4.655" cy="356.25" class="st6" rx="4.655" ry="4.5"/></g><g id="shape17-37" transform="translate(60.892 -49.875)"><ellipse cx="4.655" cy="356.25" class="st6" rx="4.655" ry="4.5"/></g><g id="shape18-39" transform="translate(153.375 -342.375)"><path d="M0 342.75h180v18H0z" class="st7"/><text x="25.3" y="355.35" class="st2">Publication PDF-internal</text></g><g id="shape19-42" transform="translate(153.375 -324.375)"><path d="M0 342.75h180v18H0z" class="st8"/><text x="14.4" y="355.05" class="st9">audience-internal.ditaval</text></g><g id="shape20-45" transform="translate(351.375 -342.375)"><path d="M0 342.75h180v18H0z" class="st7"/><text x="23.64" y="355.35" class="st2">Publication PDF-external</text></g><g id="shape21-48" transform="translate(351.375 -324.375)"><path d="M0 342.75h180v18H0z" class="st8"/><text x="14.4" y="355.05" class="st9">audience-external.ditaval</text></g><g id="shape23-51" transform="translate(153.375 -288.375)"><path d="M0 342.75h180v18H0z" class="st10"/><text x="22.96" y="355.35" class="st2">Deliverable 1-internal-pdf</text></g><g id="shape24-54" transform="translate(153.375 -270.375)"><path d="M0 342.75h180v18H0z" class="st11"/><text x="47.66" y="355.05" class="st9">1-internal.pdf</text></g><g id="shape25-57" transform="translate(351.375 -288.375)"><path d="M0 342.75h180v18H0z" class="st10"/><text x="21.3" y="355.35" class="st2">Deliverable 1-external-pdf</text></g><g id="shape26-60" transform="translate(351.375 -270.375)"><path d="M0 342.75h180v18H0z" class="st11"/><text x="47.66" y="355.05" class="st9">1-external.pdf</text></g><g id="shape31-63" transform="translate(153.375 -243.375)"><path d="M0 342.75h180v18H0z" class="st10"/><text x="16.97" y="355.35" class="st2">Deliverable 2-A-internal-pdf</text></g><g id="shape32-66" transform="translate(153.375 -207.375)"><path d="M0 324.75h180v36H0z" class="st11"/><text x="41.62" y="346.05" class="st9">2-A-internal.pdf</text></g><g id="shape33-69" transform="translate(351.375 -243.375)"><path d="M0 342.75h180v18H0z" class="st10"/><text x="15.3" y="355.35" class="st2">Deliverable 2-A-external-pdf</text></g><g id="shape34-72" transform="translate(351.375 -207.375)"><path d="M0 324.75h180v36H0z" class="st11"/><text x="41.62" y="346.05" class="st9">2-A-external.pdf</text></g><g id="shape35-75" transform="translate(153.375 -180.375)"><path d="M0 342.75h180v18H0z" class="st10"/><text x="16.97" y="355.35" class="st2">Deliverable 2-B-internal-pdf</text></g><g id="shape36-78" transform="translate(153.375 -144.375)"><path d="M0 324.75h180v36H0z" class="st11"/><text x="41.62" y="346.05" class="st9">2-B-internal.pdf</text></g><g id="shape37-81" transform="translate(351.375 -180.375)"><path d="M0 342.75h180v18H0z" class="st10"/><text x="15.3" y="355.35" class="st2">Deliverable 2-B-external-pdf</text></g><g id="shape38-84" transform="translate(351.375 -144.375)"><path d="M0 324.75h180v36H0z" class="st11"/><text x="41.62" y="346.05" class="st9">2-B-external.pdf</text></g><g id="shape39-87" transform="translate(153.375 -117.375)"><path d="M0 342.75h180v18H0z" class="st10"/><text x="22.96" y="355.35" class="st2">Deliverable 3-internal-pdf</text></g><g id="shape40-90" transform="translate(153.375 -99.375)"><path d="M0 342.75h180v18H0z" class="st11"/><text x="47.66" y="355.05" class="st9">3-internal.pdf</text></g><g id="shape41-93" transform="translate(351.375 -117.375)"><path d="M0 342.75h180v18H0z" class="st10"/><text x="21.3" y="355.35" class="st2">Deliverable 3-external-pdf</text></g><g id="shape42-96" transform="translate(351.375 -99.375)"><path d="M0 342.75h180v18H0z" class="st11"/><text x="47.66" y="355.05" class="st9">3-external.pdf</text></g><g id="shape43-99" transform="translate(153.375 -18.375)"><path d="M0 342.75h180v18H0z" class="st10"/><text x="16.29" y="355.35" class="st2">Deliverable 100-internal-pdf</text></g><g id="shape44-102" transform="translate(153.375 -.375)"><path d="M0 342.75h180v18H0z" class="st11"/><text x="41.62" y="355.05" class="st9">100-internal.pdf</text></g><g id="shape45-105" transform="translate(351.375 -18.375)"><path d="M0 342.75h180v18H0z" class="st10"/><text x="14.62" y="355.35" class="st2">Deliverable 100-external-pdf</text></g><g id="shape46-108" transform="translate(351.375 -.375)"><path d="M0 342.75h180v18H0z" class="st11"/><text x="41.62" y="355.05" class="st9">100-external.pdf</text></g><g id="shape47-111" transform="translate(238.72 -76.875)"><ellipse cx="4.655" cy="356.25" class="st6" rx="4.655" ry="4.5"/></g><g id="shape48-113" transform="translate(238.72 -63.375)"><ellipse cx="4.655" cy="356.25" class="st6" rx="4.655" ry="4.5"/></g><g id="shape49-115" transform="translate(238.72 -49.875)"><ellipse cx="4.655" cy="356.25" class="st6" rx="4.655" ry="4.5"/></g><g id="shape50-117" transform="translate(436.72 -76.875)"><ellipse cx="4.655" cy="356.25" class="st6" rx="4.655" ry="4.5"/></g><g id="shape51-119" transform="translate(436.72 -63.375)"><ellipse cx="4.655" cy="356.25" class="st6" rx="4.655" ry="4.5"/></g><g id="shape52-121" transform="translate(436.72 -49.875)"><ellipse cx="4.655" cy="356.25" class="st6" rx="4.655" ry="4.5"/></g></svg>