<?xml version="1.0" encoding="UTF-8" standalone="no"?>
<!-- Created with Inkscape (http://www.inkscape.org/) -->

<svg
   xmlns:dc="http://purl.org/dc/elements/1.1/"
   xmlns:cc="http://creativecommons.org/ns#"
   xmlns:rdf="http://www.w3.org/1999/02/22-rdf-syntax-ns#"
   xmlns:svg="http://www.w3.org/2000/svg"
   xmlns="http://www.w3.org/2000/svg"
   xmlns:sodipodi="http://sodipodi.sourceforge.net/DTD/sodipodi-0.dtd"
   xmlns:inkscape="http://www.inkscape.org/namespaces/inkscape"
   width="480"
   height="480"
   viewBox="0 0 480 480"
   id="svg4816"
   version="1.1"
   inkscape:version="0.91 r13725"
   sodipodi:docname="dita-ot-logo.svg">
  <style
   type="text/css"
   id="style3386">
   .logo {
     fill: #e9ecef
   }
  </style>
  <defs
     id="defs4818" />
  <sodipodi:namedview
     id="base"
     pagecolor="#ffffff"
     bordercolor="#666666"
     borderopacity="1.0"
     inkscape:pageopacity="0.0"
     inkscape:pageshadow="2"
     inkscape:zoom="1.4142136"
     inkscape:cx="285.78644"
     inkscape:cy="336.22594"
     inkscape:document-units="px"
     inkscape:current-layer="g50"
     showgrid="false"
     borderlayer="true"
     units="px"
     showborder="false"
     width="480px"
     inkscape:window-width="2560"
     inkscape:window-height="1395"
     inkscape:window-x="-1"
     inkscape:window-y="1"
     inkscape:window-maximized="0"
     showguides="true"
     inkscape:guide-bbox="true"
     inkscape:pagecheckerboard="true"
     inkscape:snap-global="false" />
  <metadata
     id="metadata4821">
    <rdf:RDF>
      <cc:Work
         rdf:about="">
        <dc:format>image/svg+xml</dc:format>
        <dc:type
           rdf:resource="http://purl.org/dc/dcmitype/StillImage" />
        <dc:title></dc:title>
      </cc:Work>
    </rdf:RDF>
  </metadata>
  <g
     inkscape:label="Layer 1"
     inkscape:groupmode="layer"
     id="layer1"
     transform="translate(0,-572.3622)"
     style="display:inline">
    <g
       id="g50"
       transform="translate(-606.57326,-12.948375)">
      <path
        class="logo"
        style="opacity:1;fill-opacity:1;stroke:none;stroke-width:10.06999969;stroke-miterlimit:4;stroke-dasharray:none;stroke-opacity:1"
        d="M 66.867188 0.11132812 C 29.708588 0.11132812 -0.20703125 30.025094 -0.20703125 67.183594 L -0.20703125 413.03711 C -0.20703125 450.1957 29.708588 480.11133 66.867188 480.11133 L 412.7207 480.11133 C 449.8792 480.11133 479.79297 450.1957 479.79297 413.03711 L 479.79297 276.75391 L 474.56836 276.75391 L 444.79297 276.75391 L 442.56836 276.75391 L 349.31445 352.70117 L 349.32617 352.71289 L 349.20703 352.88086 C 348.88893 353.1239 348.57941 353.34192 348.25391 353.60742 C 342.05811 358.66078 331.47365 363.28287 317.31055 349.70703 C 316.55215 348.98013 314.96484 347.60156 314.96484 347.60156 L 277.81445 317.23633 C 289.14505 320.19929 302.21624 321.70429 316.33984 320.48633 C 325.19103 319.72299 333.77539 317.36193 341.99414 313.8418 L 352.79102 308.45508 C 378.56596 293.75354 399.88033 268.44142 413.01953 246.93555 C 431.96343 215.929 434.57703 176.26979 433.92383 164.73242 C 433.27063 153.19505 428.04297 109.20811 428.04297 99.833984 C 428.04297 90.459864 430.00391 84.693359 430.00391 84.693359 L 463.31836 71.712891 L 437.8418 47.195312 C 437.8418 47.195312 436.53754 34.215927 431.96484 24.841797 C 427.39214 15.467677 412.36593 5.3722344 387.54297 3.2089844 C 385.99149 3.0738244 384.43542 3 382.87695 3 C 354.19692 2.3983799 334.29511 12.659163 326.99414 23.689453 C 316.48402 39.568132 303.27754 89.739696 297.39844 109.20898 C 297.08707 110.2401 296.68095 111.32416 296.22266 112.43945 C 298.87963 114.67426 301.58358 117.15797 303.77734 119.17773 C 329.78008 139.827 317.56681 190.22468 301.25391 220.14844 C 286.94258 246.40059 268.30244 271.34998 250.43555 294.85742 L 250.29492 294.74219 C 247.58909 298.51969 244.59831 302.54368 241.45117 306.68945 C 241.11368 307.13423 240.75609 307.60329 240.41992 308.04688 L 240.42383 308.04688 C 237.03061 312.49502 233.45084 317.08762 229.77734 321.72656 L 308.32227 386.0625 C 311.23553 388.16866 314.11451 389.84732 316.92188 391.1875 L 316.92188 445.11133 L 110.82422 445.11133 L 110.82422 224.28906 L 179.12109 280.23242 C 182.38051 265.42097 184.52829 256.79106 188.06641 243.88086 L 110.61719 180.57812 L 289.07422 35.240234 L 289.07422 35.111328 L 289.07422 21.447266 L 289.07422 0.11132812 L 66.867188 0.11132812 z M 393.28125 31.796875 C 396.65954 31.671828 399.87059 32.868812 400.57422 37.601562 C 401.93972 46.786074 399.20106 50.720312 391.64648 52.263672 C 384.09194 53.807032 375.16406 51.491534 375.16406 46.089844 C 375.16406 40.688264 381.62254 34.946176 387.52539 32.972656 C 389.16682 32.423874 391.25427 31.871903 393.28125 31.796875 z M 71.353516 35.111328 L 235.78906 35.111328 L 234.74609 35.818359 C 187.2729 73.991874 139.7584 112.20122 92.308594 150.35547 C 82.397994 158.22093 76.867188 168.25712 76.867188 179.96094 C 76.867188 180.4456 76.889586 180.9248 76.910156 181.4043 L 76.880859 181.4043 L 76.880859 445.11133 L 71.353516 445.11133 C 51.099316 445.11133 34.792969 428.80497 34.792969 408.55078 L 34.792969 71.671875 C 34.792969 51.417675 51.099315 35.111328 71.353516 35.111328 z M 425.91992 44.759766 L 449.78906 68.048828 L 411.06836 82.929688 C 411.06836 82.929688 410.53932 75.812914 409.47852 69.990234 C 408.41782 64.167564 405.76562 61.580078 405.76562 61.580078 C 405.76563 61.580078 408.94726 54.463741 412.66016 50.582031 C 416.37296 46.700211 425.91992 44.759766 425.91992 44.759766 z M 282.10547 124.49805 C 274.74502 124.26863 266.17071 131.36764 261.70703 136.76172 C 250.14606 150.73245 247.87634 154.7875 241.73047 164.32617 C 235.31196 174.28799 229.14071 184.47758 224.13867 195.2207 C 215.13595 214.55627 208.04654 234.79895 201.96484 255.24219 C 198.37534 267.30804 194.87243 280.52858 191.56055 295.93555 C 184.73207 327.70188 181.82348 342.04816 181.26562 349.71484 C 181.04221 352.78516 182.17294 351.39394 183.20312 350.38281 C 197.70508 336.14903 209.89832 320.03865 216.93164 311.20312 C 224.44554 301.76387 230.80168 293.37239 237.44531 284.24023 C 264.92267 246.42533 270.74085 241.54957 286.64844 212.24023 C 304.34873 179.62787 308.04166 139.1942 286.94141 125.93945 C 285.43762 124.9948 283.80403 124.55099 282.10547 124.49805 z M 444.79297 319.02539 L 444.79297 408.55078 C 444.79297 428.80497 428.48866 445.11133 408.23438 445.11133 L 354.72656 445.11133 L 354.72656 391.93359 C 356.65921 390.95057 358.79714 389.59669 360.80273 387.73047 C 360.93593 387.65097 361.06687 387.58262 361.20117 387.49805 L 444.79297 319.02539 z "
        transform="translate(606.57326,585.31058)"
        id="rect5672" />
   </g>
  </g>
</svg>
